<?xml version="1.0" encoding="UTF-8"?>
<svg xmlns="http://www.w3.org/2000/svg" width="1280" height="640" viewBox="0 0 1280 640">
  <defs>
    <linearGradient id="bg" x1="0" y1="0" x2="0" y2="1">
      <stop offset="0%" stop-color="#0F2040"/>
      <stop offset="100%" stop-color="#060C1A"/>
    </linearGradient>
    <linearGradient id="goldShimmer" x1="0" y1="0" x2="1" y2="1">
      <stop offset="0%" stop-color="#F0C040"/>
      <stop offset="100%" stop-color="#D4A838"/>
    </linearGradient>
  </defs>

  <rect width="1280" height="640" fill="url(#bg)"/>

  <!-- Subtle grid lines -->
  <g stroke="rgba(240,192,64,0.04)" stroke-width="1">
    <line x1="0" y1="160" x2="1280" y2="160"/>
    <line x1="0" y1="320" x2="1280" y2="320"/>
    <line x1="0" y1="480" x2="1280" y2="480"/>
    <line x1="320" y1="0" x2="320" y2="640"/>
    <line x1="640" y1="0" x2="640" y2="640"/>
    <line x1="960" y1="0" x2="960" y2="640"/>
  </g>

  <!-- Top-left wordmark -->
  <text x="64" y="72" font-family="'Playfair Display', Georgia, serif" font-weight="900"
        font-size="36" fill="#F0C040">commit<tspan fill="#F8F5EE" font-weight="400">.show</tspan></text>
  <text x="64" y="100" font-family="'DM Mono', 'SF Mono', monospace"
        font-size="14" fill="rgba(248,245,238,0.55)" letter-spacing="2">VIBE&#8209;CODING&#160;&#160;LEAGUE</text>

  <!-- Trophy frame around the chunky pixel score -->
  <g>
    <rect x="375" y="151" width="530" height="338" fill="none"
          stroke="rgba(240,192,64,0.55)" stroke-width="3" rx="4"/>
    <rect x="381" y="157" width="518" height="326" fill="none"
          stroke="rgba(240,192,64,0.25)" stroke-width="1" rx="3"/>
  </g>

  <!-- Score · 8x10 thickness-2 7-segment, each cell a separate <rect> so the
       pixel-grid silhouette reads cleanly (matches the CLI's chunky pixel
       digit set). 22-px cells with 2-px gaps for visible cell separators. -->
  <g id="score">
    <!-- "85" generated · 8 cols × 10 rows · 1 = filled cell -->
    <rect x="435" y="201" width="22" height="22" fill="url(#goldShimmer)"/>
    <rect x="459" y="201" width="22" height="22" fill="url(#goldShimmer)"/>
    <rect x="483" y="201" width="22" height="22" fill="url(#goldShimmer)"/>
    <rect x="507" y="201" width="22" height="22" fill="url(#goldShimmer)"/>
    <rect x="531" y="201" width="22" height="22" fill="url(#goldShimmer)"/>
    <rect x="555" y="201" width="22" height="22" fill="url(#goldShimmer)"/>
    <rect x="579" y="201" width="22" height="22" fill="url(#goldShimmer)"/>
    <rect x="603" y="201" width="22" height="22" fill="url(#goldShimmer)"/>
    <rect x="435" y="225" width="22" height="22" fill="url(#goldShimmer)"/>
    <rect x="459" y="225" width="22" height="22" fill="url(#goldShimmer)"/>
    <rect x="483" y="225" width="22" height="22" fill="url(#goldShimmer)"/>
    <rect x="507" y="225" width="22" height="22" fill="url(#goldShimmer)"/>
    <rect x="531" y="225" width="22" height="22" fill="url(#goldShimmer)"/>
    <rect x="555" y="225" width="22" height="22" fill="url(#goldShimmer)"/>
    <rect x="579" y="225" width="22" height="22" fill="url(#goldShimmer)"/>
    <rect x="603" y="225" width="22" height="22" fill="url(#goldShimmer)"/>
    <rect x="435" y="249" width="22" height="22" fill="url(#goldShimmer)"/>
    <rect x="459" y="249" width="22" height="22" fill="url(#goldShimmer)"/>
    <rect x="603" y="249" width="22" height="22" fill="url(#goldShimmer)"/>
    <rect x="435" y="273" width="22" height="22" fill="url(#goldShimmer)"/>
    <rect x="459" y="273" width="22" height="22" fill="url(#goldShimmer)"/>
    <rect x="603" y="273" width="22" height="22" fill="url(#goldShimmer)"/>
    <rect x="435" y="297" width="22" height="22" fill="url(#goldShimmer)"/>
    <rect x="459" y="297" width="22" height="22" fill="url(#goldShimmer)"/>
    <rect x="483" y="297" width="22" height="22" fill="url(#goldShimmer)"/>
    <rect x="507" y="297" width="22" height="22" fill="url(#goldShimmer)"/>
    <rect x="531" y="297" width="22" height="22" fill="url(#goldShimmer)"/>
    <rect x="555" y="297" width="22" height="22" fill="url(#goldShimmer)"/>
    <rect x="579" y="297" width="22" height="22" fill="url(#goldShimmer)"/>
    <rect x="603" y="297" width="22" height="22" fill="url(#goldShimmer)"/>
    <rect x="435" y="321" width="22" height="22" fill="url(#goldShimmer)"/>
    <rect x="459" y="321" width="22" height="22" fill="url(#goldShimmer)"/>
    <rect x="483" y="321" width="22" height="22" fill="url(#goldShimmer)"/>
    <rect x="507" y="321" width="22" height="22" fill="url(#goldShimmer)"/>
    <rect x="531" y="321" width="22" height="22" fill="url(#goldShimmer)"/>
    <rect x="555" y="321" width="22" height="22" fill="url(#goldShimmer)"/>
    <rect x="579" y="321" width="22" height="22" fill="url(#goldShimmer)"/>
    <rect x="603" y="321" width="22" height="22" fill="url(#goldShimmer)"/>
    <rect x="435" y="345" width="22" height="22" fill="url(#goldShimmer)"/>
    <rect x="459" y="345" width="22" height="22" fill="url(#goldShimmer)"/>
    <rect x="435" y="369" width="22" height="22" fill="url(#goldShimmer)"/>
    <rect x="459" y="369" width="22" height="22" fill="url(#goldShimmer)"/>
    <rect x="435" y="393" width="22" height="22" fill="url(#goldShimmer)"/>
    <rect x="459" y="393" width="22" height="22" fill="url(#goldShimmer)"/>
    <rect x="483" y="393" width="22" height="22" fill="url(#goldShimmer)"/>
    <rect x="507" y="393" width="22" height="22" fill="url(#goldShimmer)"/>
    <rect x="531" y="393" width="22" height="22" fill="url(#goldShimmer)"/>
    <rect x="555" y="393" width="22" height="22" fill="url(#goldShimmer)"/>
    <rect x="579" y="393" width="22" height="22" fill="url(#goldShimmer)"/>
    <rect x="603" y="393" width="22" height="22" fill="url(#goldShimmer)"/>
    <rect x="435" y="417" width="22" height="22" fill="url(#goldShimmer)"/>
    <rect x="459" y="417" width="22" height="22" fill="url(#goldShimmer)"/>
    <rect x="483" y="417" width="22" height="22" fill="url(#goldShimmer)"/>
    <rect x="507" y="417" width="22" height="22" fill="url(#goldShimmer)"/>
    <rect x="531" y="417" width="22" height="22" fill="url(#goldShimmer)"/>
    <rect x="555" y="417" width="22" height="22" fill="url(#goldShimmer)"/>
    <rect x="579" y="417" width="22" height="22" fill="url(#goldShimmer)"/>
    <rect x="603" y="417" width="22" height="22" fill="url(#goldShimmer)"/>

    <rect x="655" y="201" width="22" height="22" fill="url(#goldShimmer)"/>
    <rect x="679" y="201" width="22" height="22" fill="url(#goldShimmer)"/>
    <rect x="703" y="201" width="22" height="22" fill="url(#goldShimmer)"/>
    <rect x="727" y="201" width="22" height="22" fill="url(#goldShimmer)"/>
    <rect x="751" y="201" width="22" height="22" fill="url(#goldShimmer)"/>
    <rect x="775" y="201" width="22" height="22" fill="url(#goldShimmer)"/>
    <rect x="799" y="201" width="22" height="22" fill="url(#goldShimmer)"/>
    <rect x="823" y="201" width="22" height="22" fill="url(#goldShimmer)"/>
    <rect x="655" y="225" width="22" height="22" fill="url(#goldShimmer)"/>
    <rect x="679" y="225" width="22" height="22" fill="url(#goldShimmer)"/>
    <rect x="703" y="225" width="22" height="22" fill="url(#goldShimmer)"/>
    <rect x="727" y="225" width="22" height="22" fill="url(#goldShimmer)"/>
    <rect x="751" y="225" width="22" height="22" fill="url(#goldShimmer)"/>
    <rect x="775" y="225" width="22" height="22" fill="url(#goldShimmer)"/>
    <rect x="799" y="225" width="22" height="22" fill="url(#goldShimmer)"/>
    <rect x="823" y="225" width="22" height="22" fill="url(#goldShimmer)"/>
    <rect x="655" y="249" width="22" height="22" fill="url(#goldShimmer)"/>
    <rect x="679" y="249" width="22" height="22" fill="url(#goldShimmer)"/>
    <rect x="655" y="273" width="22" height="22" fill="url(#goldShimmer)"/>
    <rect x="679" y="273" width="22" height="22" fill="url(#goldShimmer)"/>
    <rect x="655" y="297" width="22" height="22" fill="url(#goldShimmer)"/>
    <rect x="679" y="297" width="22" height="22" fill="url(#goldShimmer)"/>
    <rect x="703" y="297" width="22" height="22" fill="url(#goldShimmer)"/>
    <rect x="727" y="297" width="22" height="22" fill="url(#goldShimmer)"/>
    <rect x="751" y="297" width="22" height="22" fill="url(#goldShimmer)"/>
    <rect x="775" y="297" width="22" height="22" fill="url(#goldShimmer)"/>
    <rect x="799" y="297" width="22" height="22" fill="url(#goldShimmer)"/>
    <rect x="823" y="297" width="22" height="22" fill="url(#goldShimmer)"/>
    <rect x="655" y="321" width="22" height="22" fill="url(#goldShimmer)"/>
    <rect x="679" y="321" width="22" height="22" fill="url(#goldShimmer)"/>
    <rect x="703" y="321" width="22" height="22" fill="url(#goldShimmer)"/>
    <rect x="727" y="321" width="22" height="22" fill="url(#goldShimmer)"/>
    <rect x="751" y="321" width="22" height="22" fill="url(#goldShimmer)"/>
    <rect x="775" y="321" width="22" height="22" fill="url(#goldShimmer)"/>
    <rect x="799" y="321" width="22" height="22" fill="url(#goldShimmer)"/>
    <rect x="823" y="321" width="22" height="22" fill="url(#goldShimmer)"/>
    <rect x="799" y="345" width="22" height="22" fill="url(#goldShimmer)"/>
    <rect x="823" y="345" width="22" height="22" fill="url(#goldShimmer)"/>
    <rect x="799" y="369" width="22" height="22" fill="url(#goldShimmer)"/>
    <rect x="823" y="369" width="22" height="22" fill="url(#goldShimmer)"/>
    <rect x="655" y="393" width="22" height="22" fill="url(#goldShimmer)"/>
    <rect x="679" y="393" width="22" height="22" fill="url(#goldShimmer)"/>
    <rect x="703" y="393" width="22" height="22" fill="url(#goldShimmer)"/>
    <rect x="727" y="393" width="22" height="22" fill="url(#goldShimmer)"/>
    <rect x="751" y="393" width="22" height="22" fill="url(#goldShimmer)"/>
    <rect x="775" y="393" width="22" height="22" fill="url(#goldShimmer)"/>
    <rect x="799" y="393" width="22" height="22" fill="url(#goldShimmer)"/>
    <rect x="823" y="393" width="22" height="22" fill="url(#goldShimmer)"/>
    <rect x="655" y="417" width="22" height="22" fill="url(#goldShimmer)"/>
    <rect x="679" y="417" width="22" height="22" fill="url(#goldShimmer)"/>
    <rect x="703" y="417" width="22" height="22" fill="url(#goldShimmer)"/>
    <rect x="727" y="417" width="22" height="22" fill="url(#goldShimmer)"/>
    <rect x="751" y="417" width="22" height="22" fill="url(#goldShimmer)"/>
    <rect x="775" y="417" width="22" height="22" fill="url(#goldShimmer)"/>
    <rect x="799" y="417" width="22" height="22" fill="url(#goldShimmer)"/>
    <rect x="823" y="417" width="22" height="22" fill="url(#goldShimmer)"/>
  </g>

  <!-- Caption inside the frame, below the score -->
  <text x="640" y="468" text-anchor="middle"
        font-family="'DM Mono', 'SF Mono', monospace" font-size="22"
        fill="rgba(248,245,238,0.75)" letter-spacing="3">/ 100 · STRONG</text>

  <!-- Tagline below trophy -->
  <text x="640" y="528" text-anchor="middle"
        font-family="'Playfair Display', Georgia, serif" font-weight="700"
        font-style="italic" font-size="34" fill="#F8F5EE">Every commit, on stage.</text>

  <!-- Bottom CTA · npx command -->
  <g transform="translate(640, 588)">
    <rect x="-340" y="-22" width="680" height="44" rx="3"
          fill="rgba(0,0,0,0.4)" stroke="rgba(240,192,64,0.35)" stroke-width="1"/>
    <text x="0" y="8" text-anchor="middle"
          font-family="'DM Mono', 'SF Mono', monospace" font-size="18"
          fill="#F0C040" letter-spacing="0.5">npx commitshow@latest audit github.com/owner/repo</text>
  </g>
</svg>
